<?xml version="1.0" encoding="utf-8"?>
<!-- Generator: Adobe Illustrator 23.1.1, SVG Export Plug-In . SVG Version: 6.00 Build 0)  -->
<svg version="1.1" xmlns="http://www.w3.org/2000/svg" xmlns:xlink="http://www.w3.org/1999/xlink" x="0px" y="0px"
	 viewBox="0 0 184 29" style="enable-background:new 0 0 184 29;" xml:space="preserve">
<style type="text/css">
	.st0{opacity:0.5;enable-background:new    ;}
	.st1{fill:none;stroke:#000000;stroke-miterlimit:10;}
	.st2{opacity:0.8;enable-background:new    ;}
	.st3{opacity:0.5;fill:none;stroke:#000000;stroke-miterlimit:10;enable-background:new    ;}
	.st4{fill:none;stroke:#000000;stroke-width:0.25;stroke-miterlimit:10;}
	.st5{fill:#EA963F;}
	.st6{fill:#606160;}
	.st7{fill:#D1AC00;}
	.st8{fill:#F9F3D5;}
	.st9{fill:#2C1408;}
</style>
<g id="Layer_1">
	<g>
		<g>
			<path class="st8" d="M2,20.5V7.3h10.7v3.3H6.4v9.8H2z M6.1,16.3v-3.3h5.8v3.3H6.1z"/>
			<path class="st8" d="M12.9,20.5l5.8-13.2H23l5.8,13.2h-4.6L19.9,9.4h1.7l-4.3,11.1H12.9z M16.3,18.2l1.1-3.2h6.1l1.1,3.2H16.3z"
				/>
			<path class="st8" d="M29.7,20.5V7.3h3.7l6.7,8h-1.7v-8h4.3v13.2h-3.7l-6.7-8H34v8H29.7z"/>
			<path class="st8" d="M45.1,20.5V7.3h3.7l6.7,8h-1.7v-8h4.3v13.2h-3.7l-6.7-8h1.7v8H45.1z"/>
			<path class="st8" d="M63.8,20.5v-5.8l1,2.7l-6-10h4.7l4,6.9h-2.7l4.1-6.9h4.3l-5.9,10l1-2.7v5.8H63.8z"/>
			<path class="st8" d="M79.9,20.5V7.3h4.4V17h5.9v3.4H79.9z"/>
			<path class="st8" d="M90.3,20.5L96,7.3h4.4l5.8,13.2h-4.6L97.3,9.4h1.7l-4.3,11.1H90.3z M93.7,18.2l1.1-3.2h6.1l1.1,3.2H93.7z"/>
			<path class="st8" d="M113.4,20.8c-2,0-3.6-0.5-4.7-1.6s-1.7-2.6-1.7-4.6V7.3h4.4v7.1c0,1,0.2,1.7,0.5,2.1
				c0.4,0.4,0.9,0.6,1.5,0.6c0.6,0,1.1-0.2,1.5-0.6c0.4-0.4,0.5-1.1,0.5-2.1V7.3h4.4v7.2c0,2-0.6,3.5-1.7,4.6S115.4,20.8,113.4,20.8
				z"/>
			<path class="st8" d="M134.8,20.8c-1.1,0-2-0.2-2.9-0.5c-0.9-0.3-1.7-0.8-2.3-1.4s-1.2-1.3-1.5-2.2c-0.4-0.8-0.5-1.8-0.5-2.8
				s0.2-1.9,0.5-2.8c0.4-0.8,0.9-1.6,1.5-2.2s1.4-1.1,2.3-1.4c0.9-0.3,1.9-0.5,2.9-0.5c1.3,0,2.4,0.2,3.4,0.7c1,0.5,1.8,1.1,2.5,2
				l-2.8,2.5c-0.4-0.5-0.8-0.9-1.3-1.1c-0.5-0.3-1-0.4-1.6-0.4c-0.5,0-0.9,0.1-1.3,0.2c-0.4,0.2-0.7,0.4-1,0.7
				c-0.3,0.3-0.5,0.6-0.6,1s-0.2,0.9-0.2,1.4c0,0.5,0.1,1,0.2,1.4s0.4,0.8,0.6,1c0.3,0.3,0.6,0.5,1,0.7c0.4,0.2,0.8,0.2,1.3,0.2
				c0.6,0,1.1-0.1,1.6-0.4s0.9-0.6,1.3-1.1l2.8,2.5c-0.7,0.8-1.5,1.5-2.5,1.9S136.1,20.8,134.8,20.8z"/>
			<path class="st8" d="M142.1,20.5V7.3h4.4v13.2H142.1z M146.2,15.6V12h4.7v3.7H146.2z M150.6,20.5V7.3h4.4v13.2H150.6z"/>
			<path class="st8" d="M157.4,20.5V7.3h10.7v3.3h-6.3v6.5h6.6v3.3H157.4z M161.5,15.4v-3.2h5.9v3.2H161.5z"/>
			<path class="st8" d="M170.3,20.5V7.3h3.7l6.7,8H179v-8h4.3v13.2h-3.7l-6.7-8h1.7v8H170.3z"/>
		</g>
	</g>
</g>
<g id="Isolation_Mode_1_">
</g>
</svg>
